<?xml version="1.0" encoding="UTF-8"?>
<svg id="MedTrix_logo" xmlns="http://www.w3.org/2000/svg" version="1.1" viewBox="0 0 189.1 63.9">
  <!-- Generator: Adobe Illustrator 29.5.0, SVG Export Plug-In . SVG Version: 2.1.0 Build 137)  -->
  <g>
    <path d="M56.24,44.78c-1.23,0-2.37-.29-3.4-.88-1.04-.59-1.86-1.44-2.46-2.55-.61-1.11-.91-2.43-.91-3.96v-.38c0-1.52.3-2.84.91-3.94.61-1.1,1.42-1.95,2.45-2.55,1.03-.6,2.16-.89,3.42-.89,1,0,1.84.13,2.54.4.69.26,1.26.6,1.69,1,.43.4.76.83,1,1.28h.41v-8.44h2.32v20.52h-2.26v-2.38h-.41c-.39.72-1,1.37-1.82,1.94-.82.57-1.97.85-3.46.85ZM56.86,42.73c1.49,0,2.69-.47,3.62-1.42.93-.95,1.39-2.27,1.39-3.97v-.26c0-1.7-.46-3.02-1.39-3.97-.93-.95-2.14-1.42-3.62-1.42s-2.67.47-3.62,1.42c-.95.95-1.42,2.27-1.42,3.97v.26c0,1.7.47,3.02,1.42,3.97s2.16,1.42,3.62,1.42Z"/>
    <path d="M75.62,44.78c-1.45,0-2.72-.31-3.81-.92-1.09-.62-1.95-1.48-2.55-2.59-.61-1.11-.91-2.4-.91-3.87v-.35c0-1.48.3-2.79.91-3.9.61-1.11,1.45-1.98,2.52-2.59,1.07-.62,2.31-.92,3.69-.92s2.54.29,3.58.87c1.04.58,1.85,1.4,2.43,2.48.59,1.08.88,2.34.88,3.78v1.06h-11.7c.06,1.54.56,2.75,1.5,3.62.94.87,2.11,1.3,3.52,1.3,1.23,0,2.18-.28,2.84-.85.66-.57,1.17-1.24,1.52-2.02l1.99.97c-.29.61-.7,1.21-1.22,1.82-.52.61-1.19,1.11-2.02,1.52-.83.41-1.89.62-3.18.62ZM70.7,35.89h9.32c-.08-1.33-.53-2.36-1.36-3.11-.83-.74-1.89-1.11-3.18-1.11s-2.39.37-3.23,1.11c-.84.74-1.36,1.78-1.55,3.11Z"/>
    <path d="M92.19,44.78c-1.78,0-3.28-.41-4.5-1.23-1.22-.82-1.96-2.12-2.21-3.9l2.2-.5c.16.94.45,1.68.88,2.21.43.54.96.92,1.6,1.14.63.22,1.31.34,2.04.34,1.07,0,1.92-.21,2.55-.65.62-.43.94-1.01.94-1.73s-.3-1.27-.89-1.57c-.6-.3-1.41-.55-2.45-.75l-1.2-.21c-.92-.16-1.76-.4-2.52-.73-.76-.33-1.37-.78-1.82-1.35-.45-.57-.67-1.28-.67-2.14,0-1.29.5-2.3,1.5-3.02,1-.72,2.32-1.08,3.96-1.08s2.94.37,3.94,1.1c1.01.73,1.66,1.76,1.95,3.09l-2.17.56c-.18-1.04-.6-1.76-1.26-2.18-.67-.42-1.49-.63-2.46-.63s-1.75.18-2.32.54c-.57.36-.85.89-.85,1.6s.27,1.19.81,1.51,1.26.56,2.15.72l1.2.21c1.02.18,1.93.42,2.74.72.81.3,1.46.74,1.94,1.3.48.57.72,1.31.72,2.23,0,1.41-.52,2.49-1.57,3.25-1.05.76-2.45,1.14-4.21,1.14Z"/>
    <path d="M103.03,27.8c-.51,0-.93-.17-1.28-.5-.34-.33-.51-.75-.51-1.26s.17-.96.51-1.29c.34-.33.77-.5,1.28-.5s.93.17,1.26.5c.33.33.5.76.5,1.29s-.17.93-.5,1.26c-.33.33-.75.5-1.26.5ZM101.86,44.37v-14.34h2.32v14.34h-2.32Z"/>
    <path d="M108.34,37.27v-.41c0-1.5.3-2.79.91-3.87.61-1.07,1.43-1.9,2.46-2.49s2.17-.88,3.4-.88c1.5,0,2.66.29,3.47.87s1.41,1.22,1.8,1.92h.41v-2.38h2.2v17.68c0,.78-.22,1.4-.65,1.85-.43.45-1.06.67-1.88.67h-9.73v-2.05h9.12c.59,0,.88-.29.88-.88v-5.45h-.41c-.24.43-.57.85-1,1.26-.43.41-.99.75-1.67,1.01-.68.26-1.54.4-2.55.4-1.23,0-2.37-.29-3.4-.88-1.04-.59-1.86-1.42-2.46-2.51-.61-1.08-.91-2.37-.91-3.86ZM115.73,42.46c1.49,0,2.69-.47,3.62-1.41.93-.94,1.39-2.23,1.39-3.87v-.23c0-1.66-.46-2.96-1.39-3.88-.93-.93-2.14-1.39-3.62-1.39s-2.67.46-3.62,1.39c-.95.93-1.42,2.22-1.42,3.88v.23c0,1.64.47,2.93,1.42,3.87.95.94,2.16,1.41,3.62,1.41Z"/>
    <path d="M127.87,44.37v-14.34h2.26v2.43h.41c.31-.68.84-1.3,1.6-1.86.75-.56,1.86-.84,3.33-.84,1.07,0,2.04.23,2.89.67s1.53,1.11,2.04,1.99c.51.88.76,1.96.76,3.25v8.68h-2.32v-8.5c0-1.43-.36-2.46-1.07-3.11-.71-.64-1.68-.97-2.89-.97-1.39,0-2.52.45-3.39,1.35-.87.9-1.3,2.24-1.3,4.02v7.21h-2.32Z"/>
    <path d="M147.01,27.8c-.51,0-.93-.17-1.28-.5-.34-.33-.51-.75-.51-1.26s.17-.96.51-1.29c.34-.33.77-.5,1.28-.5s.93.17,1.26.5c.33.33.5.76.5,1.29s-.17.93-.5,1.26c-.33.33-.75.5-1.26.5ZM145.84,44.37v-14.34h2.32v14.34h-2.32Z"/>
    <path d="M152.32,37.27v-.41c0-1.5.3-2.79.91-3.87.61-1.07,1.43-1.9,2.46-2.49s2.17-.88,3.4-.88c1.5,0,2.66.29,3.47.87s1.41,1.22,1.8,1.92h.41v-2.38h2.2v17.68c0,.78-.22,1.4-.65,1.85-.43.45-1.06.67-1.88.67h-9.73v-2.05h9.12c.59,0,.88-.29.88-.88v-5.45h-.41c-.24.43-.57.85-1,1.26-.43.41-.99.75-1.67,1.01-.68.26-1.54.4-2.55.4-1.23,0-2.37-.29-3.4-.88-1.04-.59-1.86-1.42-2.46-2.51-.61-1.08-.91-2.37-.91-3.86ZM159.71,42.46c1.49,0,2.69-.47,3.62-1.41.93-.94,1.39-2.23,1.39-3.87v-.23c0-1.66-.46-2.96-1.39-3.88-.93-.93-2.14-1.39-3.62-1.39s-2.67.46-3.62,1.39c-.95.93-1.42,2.22-1.42,3.88v.23c0,1.64.47,2.93,1.42,3.87.95.94,2.16,1.41,3.62,1.41Z"/>
    <path d="M176.24,44.78c-1,0-1.91-.18-2.73-.53-.82-.35-1.47-.86-1.93-1.52-.47-.66-.7-1.48-.7-2.43s.23-1.78.7-2.42c.47-.63,1.11-1.11,1.93-1.44.82-.32,1.74-.48,2.76-.48h4.84v-1.06c0-1.02-.3-1.82-.89-2.4-.6-.59-1.48-.88-2.65-.88s-2.05.28-2.7.84c-.64.56-1.08,1.3-1.32,2.24l-2.17-.7c.23-.8.61-1.53,1.11-2.18.51-.65,1.19-1.18,2.04-1.58.85-.4,1.87-.6,3.06-.6,1.84,0,3.26.47,4.28,1.42,1.02.95,1.52,2.28,1.52,4v6.48c0,.59.27.88.82.88h1.32v1.96h-2.02c-.65,0-1.16-.18-1.55-.54-.39-.36-.59-.85-.59-1.45v-.15h-.35c-.22.37-.5.76-.87,1.16-.36.4-.86.73-1.48,1-.63.26-1.44.4-2.43.4ZM176.51,42.79c1.37,0,2.48-.41,3.33-1.22.85-.81,1.28-1.95,1.28-3.42v-.32h-4.75c-.92,0-1.68.2-2.27.6-.6.4-.89,1-.89,1.8s.31,1.43.92,1.88c.62.45,1.41.67,2.39.67Z"/>
  </g>
  <g>
    <g id="pBjH6N">
      <g>
        <path d="M20.39,47.01c-1.59,2.73-4.88,3.72-7.61,1.93-4.92-3.23-6.31-13.93-6.03-19.34.03-.62.14-1.43.24-2.04.06-.32.11-.96.41-1.12.31.07.82,2.27.92,2.66.58,2.38.91,4.83,1.28,7.25l.28,1.43c.87-2.55,2.78-5.34,5.44-6.25,1.11-.38,2.48-.53,3.51.14,2.67-2.79,6.74-1.28,9.58.41.6.36,1.48,1.13,2.05,1.37.35.15.4.07.44-.28.12-1.25-1.07-4.47-1.52-5.79-.59-1.73-2.36-6.94-3.86-7.79-.94-.53-1.45-.06-2.13.55-2.2,1.97-3.84,4.1-6.63,5.09-3.9,1.38-6.97-.07-10.61-2.28-4.5-2.74-4.29-6.68.2-9.29,6.38-3.72,16.92-3.54,23.27-.83,4.55,1.94,6.93,5.45,3.33,9.84-1.45,1.77-4.52,3.7-1.19,5.61.96.55,3.73,1.41,3.93,2.62.14.82-.18,2.59-.31,3.49-.53,3.68-1.92,10.86-5.1,13.1-2.9,2.05-6.89.62-9.89-.49ZM24.95,35.51l-10.35,1.86c.62.82,1.19,1.69,2.03,2.31,1.71,1.25,3.84,1.36,5.68.3,1.72-.99,2.33-2.6,2.64-4.48Z"/>
        <path d="M21.81,25.78c2.34-.24,2.41,3.14.36,3.25-2.23.12-2.41-3.04-.36-3.25Z"/>
        <path d="M14.88,27.15c1.35-.17,2.37,1.28,1.6,2.44-1,1.5-3.24.56-2.94-1.19.11-.62.71-1.17,1.33-1.25Z"/>
      </g>
    </g>
    <circle cx="36.84" cy="44.62" r="2.62"/>
  </g>
</svg>